<svg width="50" height="50" viewBox="0 0 50 50" xmlns="http://www.w3.org/2000/svg"><g id="chart" fill="none" fill-rule="evenodd"><g id="analytics-(1)" fill-rule="nonzero"><path d="M48.863 47.823H1.04a1.04 1.04 0 000 2.08h47.823a1.04 1.04 0 000-2.08z" id="Path" fill="#000"/><path d="M9.357 35.348H3.119a1.04 1.04 0 00-1.04 1.04v12.475c0 .574.466 1.04 1.04 1.04h6.238a1.04 1.04 0 001.04-1.04V36.387a1.04 1.04 0 00-1.04-1.04zm-1.04 12.475H4.16V37.427h4.158v10.396zm13.515-22.872h-6.237a1.04 1.04 0 00-1.04 1.04v22.872c0 .574.466 1.04 1.04 1.04h6.237a1.04 1.04 0 001.04-1.04V25.991a1.04 1.04 0 00-1.04-1.04zm-1.04 22.872h-4.158V27.031h4.159v20.792zM34.308 29.11H28.07a1.04 1.04 0 00-1.04 1.04v18.713c0 .574.466 1.04 1.04 1.04h6.238a1.04 1.04 0 001.04-1.04V30.15a1.04 1.04 0 00-1.04-1.04zm-1.04 18.713H29.11V31.19h4.158v16.634zm13.516-31.189h-6.238a1.04 1.04 0 00-1.04 1.04v31.189c0 .574.466 1.04 1.04 1.04h6.238a1.04 1.04 0 001.04-1.04v-31.19a1.04 1.04 0 00-1.04-1.039zm-1.04 31.19h-4.159v-29.11h4.159v29.11z" id="Shape" fill="#000"/><path d="M42.197 5.627a1.04 1.04 0 00-1.47 0l-8.068 8.067a1.04 1.04 0 001.47 1.47l8.068-8.067a1.04 1.04 0 000-1.47zm-13.522 8.608l-6.678-1.905a1.03 1.03 0 00-1.283.715 1.04 1.04 0 00.713 1.285l6.678 1.905a1.04 1.04 0 00.57-2zm-11.583-.464a1.04 1.04 0 00-1.46-.166l-7.839 6.25a1.039 1.039 0 00.649 1.853c.226 0 .455-.075.646-.225l7.84-6.25a1.04 1.04 0 00.164-1.462z" id="Path" fill="#000"/><path d="M6.238 18.713a4.163 4.163 0 00-4.159 4.159 4.163 4.163 0 004.159 4.159 4.163 4.163 0 004.158-4.159 4.163 4.163 0 00-4.158-4.159zm0 6.238a2.081 2.081 0 01-2.08-2.079c0-1.146.932-2.08 2.08-2.08 1.148 0 2.08.934 2.08 2.08s-.932 2.08-2.08 2.08zM18.713 8.317a4.163 4.163 0 00-4.158 4.159 4.163 4.163 0 004.158 4.158 4.163 4.163 0 004.159-4.158 4.163 4.163 0 00-4.159-4.159zm0 6.238a2.081 2.081 0 01-2.079-2.08c0-1.145.932-2.079 2.08-2.079 1.147 0 2.079.934 2.079 2.08a2.082 2.082 0 01-2.08 2.079zm12.477-2.079a4.163 4.163 0 00-4.16 4.158 4.163 4.163 0 004.16 4.159 4.163 4.163 0 004.158-4.159 4.163 4.163 0 00-4.159-4.158zm0 6.237a2.081 2.081 0 01-2.08-2.079 2.08 2.08 0 012.08-2.079c1.147 0 2.078.934 2.078 2.08a2.08 2.08 0 01-2.079 2.078zM43.665 0a4.163 4.163 0 00-4.159 4.159 4.163 4.163 0 004.159 4.158 4.163 4.163 0 004.158-4.158A4.163 4.163 0 0043.665 0zm0 6.238a2.081 2.081 0 01-2.08-2.08c0-1.145.932-2.079 2.08-2.079 1.147 0 2.079.934 2.079 2.08a2.082 2.082 0 01-2.08 2.079z" id="Shape" fill="#B40910"/></g></g></svg>